<svg xmlns="http://www.w3.org/2000/svg" viewBox="0 0 960 440" font-family="Segoe UI,Arial,sans-serif">
  <rect width="960" height="440" fill="#1a1a2e" rx="12"/>
  <text x="480" y="28" text-anchor="middle" font-size="16" font-weight="700" fill="#fff">16 Mining Profiles - Sorted by Power</text>
  <text x="480" y="46" text-anchor="middle" font-size="10" fill="#888">Auto-selected every 5min based on solar surplus = -Grid + currentMiningW</text>
  <rect x="30" y="65" width="220" height="78" fill="#333" rx="8" stroke="#555" stroke-width="1.5"/>
  <text x="140" y="83" text-anchor="middle" font-size="11" font-weight="700" fill="#888">OFF</text>
  <text x="140" y="100" text-anchor="middle" font-size="10" fill="#ccc">0W</text>
  <text x="140" y="115" text-anchor="middle" font-size="8" fill="#999">R1:OFF R2:OFF AV:off</text>
  <text x="140" y="130" text-anchor="middle" font-size="8" fill="#666">#0</text>
  <rect x="265" y="65" width="220" height="78" fill="#1a3a2e" rx="8" stroke="#4a8a6e" stroke-width="1.5"/>
  <text x="375" y="83" text-anchor="middle" font-size="11" font-weight="700" fill="#4ecdc4">BN</text>
  <text x="375" y="100" text-anchor="middle" font-size="10" fill="#ccc">81W</text>
  <text x="375" y="115" text-anchor="middle" font-size="8" fill="#999">R1:ON R2:OFF AV:off</text>
  <text x="375" y="130" text-anchor="middle" font-size="8" fill="#666">#1</text>
  <rect x="500" y="65" width="220" height="78" fill="#1a3a2e" rx="8" stroke="#4a8a6e" stroke-width="1.5"/>
  <text x="610" y="83" text-anchor="middle" font-size="11" font-weight="700" fill="#4ecdc4">OCT</text>
  <text x="610" y="100" text-anchor="middle" font-size="10" fill="#ccc">180W</text>
  <text x="610" y="115" text-anchor="middle" font-size="8" fill="#999">R1:OFF R2:ON AV:off</text>
  <text x="610" y="130" text-anchor="middle" font-size="8" fill="#666">#2</text>
  <rect x="735" y="65" width="220" height="78" fill="#1a3a2e" rx="8" stroke="#4a8a6e" stroke-width="1.5"/>
  <text x="845" y="83" text-anchor="middle" font-size="11" font-weight="700" fill="#4ecdc4">BN+OCT</text>
  <text x="845" y="100" text-anchor="middle" font-size="10" fill="#ccc">261W</text>
  <text x="845" y="115" text-anchor="middle" font-size="8" fill="#999">R1:ON R2:ON AV:off</text>
  <text x="845" y="130" text-anchor="middle" font-size="8" fill="#666">#3</text>
  <rect x="30" y="155" width="220" height="78" fill="#2a3a1e" rx="8" stroke="#8a8a4e" stroke-width="1.5"/>
  <text x="140" y="173" text-anchor="middle" font-size="11" font-weight="700" fill="#FFD700">AV_LO</text>
  <text x="140" y="190" text-anchor="middle" font-size="10" fill="#ccc">800W</text>
  <text x="140" y="205" text-anchor="middle" font-size="8" fill="#999">R1:OFF R2:OFF AV:low</text>
  <text x="140" y="220" text-anchor="middle" font-size="8" fill="#666">#4</text>
  <rect x="265" y="155" width="220" height="78" fill="#2a3a1e" rx="8" stroke="#8a8a4e" stroke-width="1.5"/>
  <text x="375" y="173" text-anchor="middle" font-size="11" font-weight="700" fill="#FFD700">AV_LO+BN</text>
  <text x="375" y="190" text-anchor="middle" font-size="10" fill="#ccc">881W</text>
  <text x="375" y="205" text-anchor="middle" font-size="8" fill="#999">R1:ON R2:OFF AV:low</text>
  <text x="375" y="220" text-anchor="middle" font-size="8" fill="#666">#5</text>
  <rect x="500" y="155" width="220" height="78" fill="#2a3a1e" rx="8" stroke="#8a8a4e" stroke-width="1.5"/>
  <text x="610" y="173" text-anchor="middle" font-size="11" font-weight="700" fill="#FFD700">AV_LO+OCT</text>
  <text x="610" y="190" text-anchor="middle" font-size="10" fill="#ccc">980W</text>
  <text x="610" y="205" text-anchor="middle" font-size="8" fill="#999">R1:OFF R2:ON AV:low</text>
  <text x="610" y="220" text-anchor="middle" font-size="8" fill="#666">#6</text>
  <rect x="735" y="155" width="220" height="78" fill="#2a3a1e" rx="8" stroke="#8a8a4e" stroke-width="1.5"/>
  <text x="845" y="173" text-anchor="middle" font-size="11" font-weight="700" fill="#FFD700">AV_LO+BN+OCT</text>
  <text x="845" y="190" text-anchor="middle" font-size="10" fill="#ccc">1061W</text>
  <text x="845" y="205" text-anchor="middle" font-size="8" fill="#999">R1:ON R2:ON AV:low</text>
  <text x="845" y="220" text-anchor="middle" font-size="8" fill="#666">#7</text>
  <rect x="30" y="245" width="220" height="78" fill="#3a2a1e" rx="8" stroke="#8a6a3e" stroke-width="1.5"/>
  <text x="140" y="263" text-anchor="middle" font-size="11" font-weight="700" fill="#fa709a">AV_MD</text>
  <text x="140" y="280" text-anchor="middle" font-size="10" fill="#ccc">1600W</text>
  <text x="140" y="295" text-anchor="middle" font-size="8" fill="#999">R1:OFF R2:OFF AV:mid</text>
  <text x="140" y="310" text-anchor="middle" font-size="8" fill="#666">#8</text>
  <rect x="265" y="245" width="220" height="78" fill="#3a2a1e" rx="8" stroke="#8a6a3e" stroke-width="1.5"/>
  <text x="375" y="263" text-anchor="middle" font-size="11" font-weight="700" fill="#fa709a">AV_MD+BN</text>
  <text x="375" y="280" text-anchor="middle" font-size="10" fill="#ccc">1681W</text>
  <text x="375" y="295" text-anchor="middle" font-size="8" fill="#999">R1:ON R2:OFF AV:mid</text>
  <text x="375" y="310" text-anchor="middle" font-size="8" fill="#666">#9</text>
  <rect x="500" y="245" width="220" height="78" fill="#3a2a1e" rx="8" stroke="#8a6a3e" stroke-width="1.5"/>
  <text x="610" y="263" text-anchor="middle" font-size="11" font-weight="700" fill="#fa709a">AV_HI</text>
  <text x="610" y="280" text-anchor="middle" font-size="10" fill="#ccc">1720W</text>
  <text x="610" y="295" text-anchor="middle" font-size="8" fill="#999">R1:OFF R2:OFF AV:high</text>
  <text x="610" y="310" text-anchor="middle" font-size="8" fill="#666">#10</text>
  <rect x="735" y="245" width="220" height="78" fill="#3a2a1e" rx="8" stroke="#8a6a3e" stroke-width="1.5"/>
  <text x="845" y="263" text-anchor="middle" font-size="11" font-weight="700" fill="#fa709a">AV_MD+OCT</text>
  <text x="845" y="280" text-anchor="middle" font-size="10" fill="#ccc">1780W</text>
  <text x="845" y="295" text-anchor="middle" font-size="8" fill="#999">R1:OFF R2:ON AV:mid</text>
  <text x="845" y="310" text-anchor="middle" font-size="8" fill="#666">#11</text>
  <rect x="30" y="335" width="220" height="78" fill="#3a1a1e" rx="8" stroke="#8a4a3e" stroke-width="1.5"/>
  <text x="140" y="353" text-anchor="middle" font-size="11" font-weight="700" fill="#ff6b6b">AV_HI+BN</text>
  <text x="140" y="370" text-anchor="middle" font-size="10" fill="#ccc">1801W</text>
  <text x="140" y="385" text-anchor="middle" font-size="8" fill="#999">R1:ON R2:OFF AV:high</text>
  <text x="140" y="400" text-anchor="middle" font-size="8" fill="#666">#12</text>
  <rect x="265" y="335" width="220" height="78" fill="#3a1a1e" rx="8" stroke="#8a4a3e" stroke-width="1.5"/>
  <text x="375" y="353" text-anchor="middle" font-size="11" font-weight="700" fill="#ff6b6b">AV_MD+BN+OCT</text>
  <text x="375" y="370" text-anchor="middle" font-size="10" fill="#ccc">1861W</text>
  <text x="375" y="385" text-anchor="middle" font-size="8" fill="#999">R1:ON R2:ON AV:mid</text>
  <text x="375" y="400" text-anchor="middle" font-size="8" fill="#666">#13</text>
  <rect x="500" y="335" width="220" height="78" fill="#3a1a1e" rx="8" stroke="#8a4a3e" stroke-width="1.5"/>
  <text x="610" y="353" text-anchor="middle" font-size="11" font-weight="700" fill="#ff6b6b">AV_HI+OCT</text>
  <text x="610" y="370" text-anchor="middle" font-size="10" fill="#ccc">1900W</text>
  <text x="610" y="385" text-anchor="middle" font-size="8" fill="#999">R1:OFF R2:ON AV:high</text>
  <text x="610" y="400" text-anchor="middle" font-size="8" fill="#666">#14</text>
  <rect x="735" y="335" width="220" height="78" fill="#3a1a1e" rx="8" stroke="#8a4a3e" stroke-width="1.5"/>
  <text x="845" y="353" text-anchor="middle" font-size="11" font-weight="700" fill="#ff6b6b">AV_HI+BN+OCT</text>
  <text x="845" y="370" text-anchor="middle" font-size="10" fill="#ccc">2001W</text>
  <text x="845" y="385" text-anchor="middle" font-size="8" fill="#999">R1:ON R2:ON AV:high</text>
  <text x="845" y="400" text-anchor="middle" font-size="8" fill="#666">#15</text>
  <rect x="30" y="425" width="900" height="10" rx="5" fill="rgba(255,255,255,0.05)"/>
</svg>